<mxfile host="app.diagrams.net" modified="2021-01-06T00:32:42.852Z" agent="5.0 (X11)" etag="vj7_wmeoKKmKYMgGp1Ay" version="14.1.8" type="github">
  <diagram id="C5RBs43oDa-KdzZeNtuy" name="Page-1">
    <mxGraphModel dx="2418" dy="1689" grid="1" gridSize="10" guides="1" tooltips="1" connect="1" arrows="1" fold="1" page="1" pageScale="1" pageWidth="1500" pageHeight="1169" math="0" shadow="0">
      <root>
        <mxCell id="WIyWlLk6GJQsqaUBKTNV-0" />
        <mxCell id="WIyWlLk6GJQsqaUBKTNV-1" parent="WIyWlLk6GJQsqaUBKTNV-0" />
        <mxCell id="xA0XNcAtHobreGwFJSrl-75" style="edgeStyle=orthogonalEdgeStyle;rounded=0;orthogonalLoop=1;jettySize=auto;html=1;startArrow=oval;startFill=1;endArrow=none;endFill=0;" parent="WIyWlLk6GJQsqaUBKTNV-1" source="eZX0cKU3JHBVWnm2hXTU-0" target="xA0XNcAtHobreGwFJSrl-71" edge="1">
          <mxGeometry relative="1" as="geometry">
            <Array as="points">
              <mxPoint x="660" y="-60" />
              <mxPoint x="660" y="-60" />
            </Array>
          </mxGeometry>
        </mxCell>
        <mxCell id="xA0XNcAtHobreGwFJSrl-76" value="0 .. *" style="edgeLabel;html=1;align=center;verticalAlign=middle;resizable=0;points=[];" parent="xA0XNcAtHobreGwFJSrl-75" vertex="1" connectable="0">
          <mxGeometry x="-0.7533" relative="1" as="geometry">
            <mxPoint x="3" y="-9" as="offset" />
          </mxGeometry>
        </mxCell>
        <mxCell id="xA0XNcAtHobreGwFJSrl-77" value="1" style="edgeLabel;html=1;align=center;verticalAlign=middle;resizable=0;points=[];" parent="xA0XNcAtHobreGwFJSrl-75" vertex="1" connectable="0">
          <mxGeometry x="0.78" y="1" relative="1" as="geometry">
            <mxPoint x="4" y="-7" as="offset" />
          </mxGeometry>
        </mxCell>
        <mxCell id="xA0XNcAtHobreGwFJSrl-9" value="Ray" style="swimlane;fontStyle=1;align=center;verticalAlign=top;childLayout=stackLayout;horizontal=1;startSize=26;horizontalStack=0;resizeParent=1;resizeParentMax=0;resizeLast=0;collapsible=1;marginBottom=0;" parent="WIyWlLk6GJQsqaUBKTNV-1" vertex="1">
          <mxGeometry x="1430" y="302" width="280" height="190" as="geometry" />
        </mxCell>
        <mxCell id="xA0XNcAtHobreGwFJSrl-10" value="+ origin: vector&#xa;" style="text;strokeColor=none;fillColor=none;align=left;verticalAlign=top;spacingLeft=4;spacingRight=4;overflow=hidden;rotatable=0;points=[[0,0.5],[1,0.5]];portConstraint=eastwest;" parent="xA0XNcAtHobreGwFJSrl-9" vertex="1">
          <mxGeometry y="26" width="280" height="26" as="geometry" />
        </mxCell>
        <mxCell id="xA0XNcAtHobreGwFJSrl-52" value="&lt;&lt;get/set&gt;&gt;normDirection: vector" style="text;strokeColor=none;fillColor=none;align=left;verticalAlign=top;spacingLeft=4;spacingRight=4;overflow=hidden;rotatable=0;points=[[0,0.5],[1,0.5]];portConstraint=eastwest;" parent="xA0XNcAtHobreGwFJSrl-9" vertex="1">
          <mxGeometry y="52" width="280" height="26" as="geometry" />
        </mxCell>
        <mxCell id="xA0XNcAtHobreGwFJSrl-11" value="" style="line;strokeWidth=1;fillColor=none;align=left;verticalAlign=middle;spacingTop=-1;spacingLeft=3;spacingRight=3;rotatable=0;labelPosition=right;points=[];portConstraint=eastwest;" parent="xA0XNcAtHobreGwFJSrl-9" vertex="1">
          <mxGeometry y="78" width="280" height="8" as="geometry" />
        </mxCell>
        <mxCell id="xA0XNcAtHobreGwFJSrl-12" value="Ray(origin,direction): Ray" style="text;strokeColor=none;fillColor=none;align=left;verticalAlign=top;spacingLeft=4;spacingRight=4;overflow=hidden;rotatable=0;points=[[0,0.5],[1,0.5]];portConstraint=eastwest;" parent="xA0XNcAtHobreGwFJSrl-9" vertex="1">
          <mxGeometry y="86" width="280" height="26" as="geometry" />
        </mxCell>
        <mxCell id="DLcVSVue9XgoyhIsswaT-1" value="+ normalizeVector(vector): vector" style="text;strokeColor=none;fillColor=none;align=left;verticalAlign=top;spacingLeft=4;spacingRight=4;overflow=hidden;rotatable=0;points=[[0,0.5],[1,0.5]];portConstraint=eastwest;fontStyle=4" parent="xA0XNcAtHobreGwFJSrl-9" vertex="1">
          <mxGeometry y="112" width="280" height="26" as="geometry" />
        </mxCell>
        <mxCell id="rJ9RHbi7TF8wlJc5X133-2" value="+ calcPos(n: float): vector" style="text;strokeColor=none;fillColor=none;align=left;verticalAlign=top;spacingLeft=4;spacingRight=4;overflow=hidden;rotatable=0;points=[[0,0.5],[1,0.5]];portConstraint=eastwest;" parent="xA0XNcAtHobreGwFJSrl-9" vertex="1">
          <mxGeometry y="138" width="280" height="26" as="geometry" />
        </mxCell>
        <mxCell id="rJ9RHbi7TF8wlJc5X133-1" value="+ reflect(surfNorm: vector, surfShiftPos: vector)" style="text;strokeColor=none;fillColor=none;align=left;verticalAlign=top;spacingLeft=4;spacingRight=4;overflow=hidden;rotatable=0;points=[[0,0.5],[1,0.5]];portConstraint=eastwest;" parent="xA0XNcAtHobreGwFJSrl-9" vertex="1">
          <mxGeometry y="164" width="280" height="26" as="geometry" />
        </mxCell>
        <mxCell id="xA0XNcAtHobreGwFJSrl-18" value="Screen" style="swimlane;fontStyle=1;align=center;verticalAlign=top;childLayout=stackLayout;horizontal=1;startSize=26;horizontalStack=0;resizeParent=1;resizeParentMax=0;resizeLast=0;collapsible=1;marginBottom=0;" parent="WIyWlLk6GJQsqaUBKTNV-1" vertex="1">
          <mxGeometry x="1350" y="-300" width="340" height="164" as="geometry" />
        </mxCell>
        <mxCell id="xA0XNcAtHobreGwFJSrl-19" value="&lt;&lt;get&gt;&gt; BottomLeft: vector" style="text;strokeColor=none;fillColor=none;align=left;verticalAlign=top;spacingLeft=4;spacingRight=4;overflow=hidden;rotatable=0;points=[[0,0.5],[1,0.5]];portConstraint=eastwest;" parent="xA0XNcAtHobreGwFJSrl-18" vertex="1">
          <mxGeometry y="26" width="340" height="26" as="geometry" />
        </mxCell>
        <mxCell id="xA0XNcAtHobreGwFJSrl-53" value="&lt;&lt;get&gt;&gt; BottomRight: vector&#xa;" style="text;strokeColor=none;fillColor=none;align=left;verticalAlign=top;spacingLeft=4;spacingRight=4;overflow=hidden;rotatable=0;points=[[0,0.5],[1,0.5]];portConstraint=eastwest;" parent="xA0XNcAtHobreGwFJSrl-18" vertex="1">
          <mxGeometry y="52" width="340" height="26" as="geometry" />
        </mxCell>
        <mxCell id="xA0XNcAtHobreGwFJSrl-54" value="&lt;&lt;get&gt;&gt; TopLeft: vector" style="text;strokeColor=none;fillColor=none;align=left;verticalAlign=top;spacingLeft=4;spacingRight=4;overflow=hidden;rotatable=0;points=[[0,0.5],[1,0.5]];portConstraint=eastwest;" parent="xA0XNcAtHobreGwFJSrl-18" vertex="1">
          <mxGeometry y="78" width="340" height="26" as="geometry" />
        </mxCell>
        <mxCell id="xA0XNcAtHobreGwFJSrl-55" value="&lt;&lt;get&gt;&gt; TopRight: vector" style="text;strokeColor=none;fillColor=none;align=left;verticalAlign=top;spacingLeft=4;spacingRight=4;overflow=hidden;rotatable=0;points=[[0,0.5],[1,0.5]];portConstraint=eastwest;" parent="xA0XNcAtHobreGwFJSrl-18" vertex="1">
          <mxGeometry y="104" width="340" height="26" as="geometry" />
        </mxCell>
        <mxCell id="xA0XNcAtHobreGwFJSrl-20" value="" style="line;strokeWidth=1;fillColor=none;align=left;verticalAlign=middle;spacingTop=-1;spacingLeft=3;spacingRight=3;rotatable=0;labelPosition=right;points=[];portConstraint=eastwest;" parent="xA0XNcAtHobreGwFJSrl-18" vertex="1">
          <mxGeometry y="130" width="340" height="8" as="geometry" />
        </mxCell>
        <mxCell id="xA0XNcAtHobreGwFJSrl-21" value="+ Screen(BottomLeft,BottomRight,TopLeft,TopRight): Screen" style="text;strokeColor=none;fillColor=none;align=left;verticalAlign=top;spacingLeft=4;spacingRight=4;overflow=hidden;rotatable=0;points=[[0,0.5],[1,0.5]];portConstraint=eastwest;" parent="xA0XNcAtHobreGwFJSrl-18" vertex="1">
          <mxGeometry y="138" width="340" height="26" as="geometry" />
        </mxCell>
        <mxCell id="rJ9RHbi7TF8wlJc5X133-21" style="edgeStyle=orthogonalEdgeStyle;rounded=0;orthogonalLoop=1;jettySize=auto;html=1;endArrow=oval;endFill=1;" parent="WIyWlLk6GJQsqaUBKTNV-1" source="xA0XNcAtHobreGwFJSrl-48" target="rJ9RHbi7TF8wlJc5X133-13" edge="1">
          <mxGeometry relative="1" as="geometry" />
        </mxCell>
        <mxCell id="rJ9RHbi7TF8wlJc5X133-22" value="0 .. 1" style="edgeLabel;html=1;align=center;verticalAlign=middle;resizable=0;points=[];" parent="rJ9RHbi7TF8wlJc5X133-21" vertex="1" connectable="0">
          <mxGeometry x="0.7073" relative="1" as="geometry">
            <mxPoint y="1" as="offset" />
          </mxGeometry>
        </mxCell>
        <mxCell id="rJ9RHbi7TF8wlJc5X133-23" value="1 .. 1" style="edgeLabel;html=1;align=center;verticalAlign=middle;resizable=0;points=[];" parent="rJ9RHbi7TF8wlJc5X133-21" vertex="1" connectable="0">
          <mxGeometry x="-0.7887" relative="1" as="geometry">
            <mxPoint y="1" as="offset" />
          </mxGeometry>
        </mxCell>
        <mxCell id="xA0XNcAtHobreGwFJSrl-48" value="RayTracer" style="swimlane;fontStyle=1;align=center;verticalAlign=top;childLayout=stackLayout;horizontal=1;startSize=26;horizontalStack=0;resizeParent=1;resizeParentMax=0;resizeLast=0;collapsible=1;marginBottom=0;" parent="WIyWlLk6GJQsqaUBKTNV-1" vertex="1">
          <mxGeometry x="900" y="66" width="360" height="150" as="geometry" />
        </mxCell>
        <mxCell id="xA0XNcAtHobreGwFJSrl-57" value="- picturecap: array[heightpx][withpx][3]" style="text;strokeColor=none;fillColor=none;align=left;verticalAlign=top;spacingLeft=4;spacingRight=4;overflow=hidden;rotatable=0;points=[[0,0.5],[1,0.5]];portConstraint=eastwest;" parent="xA0XNcAtHobreGwFJSrl-48" vertex="1">
          <mxGeometry y="26" width="360" height="26" as="geometry" />
        </mxCell>
        <mxCell id="xA0XNcAtHobreGwFJSrl-50" value="" style="line;strokeWidth=1;fillColor=none;align=left;verticalAlign=middle;spacingTop=-1;spacingLeft=3;spacingRight=3;rotatable=0;labelPosition=right;points=[];portConstraint=eastwest;" parent="xA0XNcAtHobreGwFJSrl-48" vertex="1">
          <mxGeometry y="52" width="360" height="8" as="geometry" />
        </mxCell>
        <mxCell id="xA0XNcAtHobreGwFJSrl-51" value="+ RayTracer(heightpx, widthpx): RayTracer" style="text;strokeColor=none;fillColor=none;align=left;verticalAlign=top;spacingLeft=4;spacingRight=4;overflow=hidden;rotatable=0;points=[[0,0.5],[1,0.5]];portConstraint=eastwest;" parent="xA0XNcAtHobreGwFJSrl-48" vertex="1">
          <mxGeometry y="60" width="360" height="30" as="geometry" />
        </mxCell>
        <mxCell id="DLcVSVue9XgoyhIsswaT-2" value="+ traceRays(heightPx, widthPx): colorVector" style="text;strokeColor=none;fillColor=none;align=left;verticalAlign=top;spacingLeft=4;spacingRight=4;overflow=hidden;rotatable=0;points=[[0,0.5],[1,0.5]];portConstraint=eastwest;" parent="xA0XNcAtHobreGwFJSrl-48" vertex="1">
          <mxGeometry y="90" width="360" height="30" as="geometry" />
        </mxCell>
        <mxCell id="DLcVSVue9XgoyhIsswaT-4" value="+ printImage(name: str)" style="text;strokeColor=none;fillColor=none;align=left;verticalAlign=top;spacingLeft=4;spacingRight=4;overflow=hidden;rotatable=0;points=[[0,0.5],[1,0.5]];portConstraint=eastwest;" parent="xA0XNcAtHobreGwFJSrl-48" vertex="1">
          <mxGeometry y="120" width="360" height="30" as="geometry" />
        </mxCell>
        <mxCell id="DLcVSVue9XgoyhIsswaT-9" style="edgeStyle=orthogonalEdgeStyle;rounded=0;orthogonalLoop=1;jettySize=auto;html=1;exitX=0.5;exitY=0;exitDx=0;exitDy=0;startArrow=none;startFill=0;endArrow=oval;endFill=1;" parent="WIyWlLk6GJQsqaUBKTNV-1" source="xA0XNcAtHobreGwFJSrl-43" target="xA0XNcAtHobreGwFJSrl-18" edge="1">
          <mxGeometry relative="1" as="geometry" />
        </mxCell>
        <mxCell id="DLcVSVue9XgoyhIsswaT-14" value="1" style="edgeLabel;html=1;align=center;verticalAlign=middle;resizable=0;points=[];" parent="DLcVSVue9XgoyhIsswaT-9" vertex="1" connectable="0">
          <mxGeometry x="-0.9141" relative="1" as="geometry">
            <mxPoint as="offset" />
          </mxGeometry>
        </mxCell>
        <mxCell id="DLcVSVue9XgoyhIsswaT-15" value="1" style="edgeLabel;html=1;align=center;verticalAlign=middle;resizable=0;points=[];" parent="DLcVSVue9XgoyhIsswaT-9" vertex="1" connectable="0">
          <mxGeometry x="0.9241" y="1" relative="1" as="geometry">
            <mxPoint as="offset" />
          </mxGeometry>
        </mxCell>
        <mxCell id="xA0XNcAtHobreGwFJSrl-43" value="Camera" style="swimlane;fontStyle=1;align=center;verticalAlign=top;childLayout=stackLayout;horizontal=1;startSize=26;horizontalStack=0;resizeParent=1;resizeParentMax=0;resizeLast=0;collapsible=1;marginBottom=0;" parent="WIyWlLk6GJQsqaUBKTNV-1" vertex="1">
          <mxGeometry x="1380" y="10" width="280" height="190" as="geometry" />
        </mxCell>
        <mxCell id="xA0XNcAtHobreGwFJSrl-63" value="+ cameraCords: vector" style="text;strokeColor=none;fillColor=none;align=left;verticalAlign=top;spacingLeft=4;spacingRight=4;overflow=hidden;rotatable=0;points=[[0,0.5],[1,0.5]];portConstraint=eastwest;" parent="xA0XNcAtHobreGwFJSrl-43" vertex="1">
          <mxGeometry y="26" width="280" height="26" as="geometry" />
        </mxCell>
        <mxCell id="xA0XNcAtHobreGwFJSrl-56" value="- heightpx: int " style="text;strokeColor=none;fillColor=none;align=left;verticalAlign=top;spacingLeft=4;spacingRight=4;overflow=hidden;rotatable=0;points=[[0,0.5],[1,0.5]];portConstraint=eastwest;" parent="xA0XNcAtHobreGwFJSrl-43" vertex="1">
          <mxGeometry y="52" width="280" height="26" as="geometry" />
        </mxCell>
        <mxCell id="xA0XNcAtHobreGwFJSrl-44" value="- widthpx: int&#xa;" style="text;strokeColor=none;fillColor=none;align=left;verticalAlign=top;spacingLeft=4;spacingRight=4;overflow=hidden;rotatable=0;points=[[0,0.5],[1,0.5]];portConstraint=eastwest;" parent="xA0XNcAtHobreGwFJSrl-43" vertex="1">
          <mxGeometry y="78" width="280" height="26" as="geometry" />
        </mxCell>
        <mxCell id="rJ9RHbi7TF8wlJc5X133-0" value="+ ratio: float" style="text;strokeColor=none;fillColor=none;align=left;verticalAlign=top;spacingLeft=4;spacingRight=4;overflow=hidden;rotatable=0;points=[[0,0.5],[1,0.5]];portConstraint=eastwest;" parent="xA0XNcAtHobreGwFJSrl-43" vertex="1">
          <mxGeometry y="104" width="280" height="26" as="geometry" />
        </mxCell>
        <mxCell id="xA0XNcAtHobreGwFJSrl-45" value="" style="line;strokeWidth=1;fillColor=none;align=left;verticalAlign=middle;spacingTop=-1;spacingLeft=3;spacingRight=3;rotatable=0;labelPosition=right;points=[];portConstraint=eastwest;" parent="xA0XNcAtHobreGwFJSrl-43" vertex="1">
          <mxGeometry y="130" width="280" height="8" as="geometry" />
        </mxCell>
        <mxCell id="xA0XNcAtHobreGwFJSrl-46" value="+ Camera(heightpx: int, widthpx: int): Camera" style="text;strokeColor=none;fillColor=none;align=left;verticalAlign=top;spacingLeft=4;spacingRight=4;overflow=hidden;rotatable=0;points=[[0,0.5],[1,0.5]];portConstraint=eastwest;" parent="xA0XNcAtHobreGwFJSrl-43" vertex="1">
          <mxGeometry y="138" width="280" height="26" as="geometry" />
        </mxCell>
        <mxCell id="xA0XNcAtHobreGwFJSrl-62" value="+ calculteRay(x: int, y: int): Ray" style="text;strokeColor=none;fillColor=none;align=left;verticalAlign=top;spacingLeft=4;spacingRight=4;overflow=hidden;rotatable=0;points=[[0,0.5],[1,0.5]];portConstraint=eastwest;" parent="xA0XNcAtHobreGwFJSrl-43" vertex="1">
          <mxGeometry y="164" width="280" height="26" as="geometry" />
        </mxCell>
        <mxCell id="xA0XNcAtHobreGwFJSrl-71" value="SpaceObjects" style="swimlane;fontStyle=1;align=center;verticalAlign=top;childLayout=stackLayout;horizontal=1;startSize=26;horizontalStack=0;resizeParent=1;resizeParentMax=0;resizeLast=0;collapsible=1;marginBottom=0;" parent="WIyWlLk6GJQsqaUBKTNV-1" vertex="1">
          <mxGeometry x="490" y="62" width="340" height="86" as="geometry" />
        </mxCell>
        <mxCell id="xA0XNcAtHobreGwFJSrl-72" value="+ objlist: list" style="text;strokeColor=none;fillColor=none;align=left;verticalAlign=top;spacingLeft=4;spacingRight=4;overflow=hidden;rotatable=0;points=[[0,0.5],[1,0.5]];portConstraint=eastwest;" parent="xA0XNcAtHobreGwFJSrl-71" vertex="1">
          <mxGeometry y="26" width="340" height="26" as="geometry" />
        </mxCell>
        <mxCell id="xA0XNcAtHobreGwFJSrl-73" value="" style="line;strokeWidth=1;fillColor=none;align=left;verticalAlign=middle;spacingTop=-1;spacingLeft=3;spacingRight=3;rotatable=0;labelPosition=right;points=[];portConstraint=eastwest;" parent="xA0XNcAtHobreGwFJSrl-71" vertex="1">
          <mxGeometry y="52" width="340" height="8" as="geometry" />
        </mxCell>
        <mxCell id="xA0XNcAtHobreGwFJSrl-83" value="+ checkIfCollisionObj(Ray): Tupel(Surface, distanceToOrig)" style="text;strokeColor=none;fillColor=none;align=left;verticalAlign=top;spacingLeft=4;spacingRight=4;overflow=hidden;rotatable=0;points=[[0,0.5],[1,0.5]];portConstraint=eastwest;" parent="xA0XNcAtHobreGwFJSrl-71" vertex="1">
          <mxGeometry y="60" width="340" height="26" as="geometry" />
        </mxCell>
        <mxCell id="xA0XNcAtHobreGwFJSrl-79" style="edgeStyle=orthogonalEdgeStyle;rounded=0;orthogonalLoop=1;jettySize=auto;html=1;startArrow=none;startFill=0;endArrow=oval;endFill=1;" parent="WIyWlLk6GJQsqaUBKTNV-1" source="YblMqJhnmN97O4RaRaiR-10" target="xA0XNcAtHobreGwFJSrl-71" edge="1">
          <mxGeometry relative="1" as="geometry">
            <mxPoint x="720" y="210" as="targetPoint" />
            <Array as="points">
              <mxPoint x="660" y="470" />
            </Array>
            <mxPoint x="760" y="560" as="sourcePoint" />
          </mxGeometry>
        </mxCell>
        <mxCell id="DLcVSVue9XgoyhIsswaT-16" value="1" style="edgeLabel;html=1;align=center;verticalAlign=middle;resizable=0;points=[];" parent="xA0XNcAtHobreGwFJSrl-79" vertex="1" connectable="0">
          <mxGeometry x="0.9493" y="-2" relative="1" as="geometry">
            <mxPoint as="offset" />
          </mxGeometry>
        </mxCell>
        <mxCell id="DLcVSVue9XgoyhIsswaT-17" value="1" style="edgeLabel;html=1;align=center;verticalAlign=middle;resizable=0;points=[];" parent="xA0XNcAtHobreGwFJSrl-79" vertex="1" connectable="0">
          <mxGeometry x="-0.9456" y="-2" relative="1" as="geometry">
            <mxPoint as="offset" />
          </mxGeometry>
        </mxCell>
        <mxCell id="DLcVSVue9XgoyhIsswaT-7" style="edgeStyle=orthogonalEdgeStyle;rounded=0;orthogonalLoop=1;jettySize=auto;html=1;exitX=1;exitY=0.5;exitDx=0;exitDy=0;endArrow=oval;endFill=1;" parent="WIyWlLk6GJQsqaUBKTNV-1" source="xA0XNcAtHobreGwFJSrl-57" target="xA0XNcAtHobreGwFJSrl-43" edge="1">
          <mxGeometry relative="1" as="geometry" />
        </mxCell>
        <mxCell id="DLcVSVue9XgoyhIsswaT-12" value="1" style="edgeLabel;html=1;align=center;verticalAlign=middle;resizable=0;points=[];" parent="DLcVSVue9XgoyhIsswaT-7" vertex="1" connectable="0">
          <mxGeometry x="-0.9209" y="-1" relative="1" as="geometry">
            <mxPoint y="10" as="offset" />
          </mxGeometry>
        </mxCell>
        <mxCell id="DLcVSVue9XgoyhIsswaT-13" value="1" style="edgeLabel;html=1;align=center;verticalAlign=middle;resizable=0;points=[];" parent="DLcVSVue9XgoyhIsswaT-7" vertex="1" connectable="0">
          <mxGeometry x="0.8374" relative="1" as="geometry">
            <mxPoint y="11" as="offset" />
          </mxGeometry>
        </mxCell>
        <mxCell id="DLcVSVue9XgoyhIsswaT-8" style="edgeStyle=orthogonalEdgeStyle;rounded=0;orthogonalLoop=1;jettySize=auto;html=1;exitX=0;exitY=0.5;exitDx=0;exitDy=0;endArrow=oval;endFill=1;" parent="WIyWlLk6GJQsqaUBKTNV-1" source="xA0XNcAtHobreGwFJSrl-57" target="xA0XNcAtHobreGwFJSrl-71" edge="1">
          <mxGeometry relative="1" as="geometry" />
        </mxCell>
        <mxCell id="DLcVSVue9XgoyhIsswaT-18" value="1" style="edgeLabel;html=1;align=center;verticalAlign=middle;resizable=0;points=[];" parent="DLcVSVue9XgoyhIsswaT-8" vertex="1" connectable="0">
          <mxGeometry x="-0.8286" y="-2" relative="1" as="geometry">
            <mxPoint y="10" as="offset" />
          </mxGeometry>
        </mxCell>
        <mxCell id="DLcVSVue9XgoyhIsswaT-21" value="1" style="edgeLabel;html=1;align=center;verticalAlign=middle;resizable=0;points=[];" parent="DLcVSVue9XgoyhIsswaT-8" vertex="1" connectable="0">
          <mxGeometry x="0.7143" y="2" relative="1" as="geometry">
            <mxPoint x="-5.43" y="6" as="offset" />
          </mxGeometry>
        </mxCell>
        <mxCell id="YblMqJhnmN97O4RaRaiR-26" style="edgeStyle=orthogonalEdgeStyle;rounded=0;orthogonalLoop=1;jettySize=auto;html=1;exitX=0.5;exitY=1;exitDx=0;exitDy=0;startArrow=oval;startFill=1;endArrow=none;endFill=0;" parent="WIyWlLk6GJQsqaUBKTNV-1" source="YblMqJhnmN97O4RaRaiR-0" target="YblMqJhnmN97O4RaRaiR-10" edge="1">
          <mxGeometry relative="1" as="geometry">
            <Array as="points">
              <mxPoint x="10" y="660" />
            </Array>
          </mxGeometry>
        </mxCell>
        <mxCell id="YblMqJhnmN97O4RaRaiR-35" value="1" style="edgeLabel;html=1;align=center;verticalAlign=middle;resizable=0;points=[];" parent="YblMqJhnmN97O4RaRaiR-26" vertex="1" connectable="0">
          <mxGeometry x="-0.9721" relative="1" as="geometry">
            <mxPoint as="offset" />
          </mxGeometry>
        </mxCell>
        <mxCell id="YblMqJhnmN97O4RaRaiR-37" value="1" style="edgeLabel;html=1;align=center;verticalAlign=middle;resizable=0;points=[];" parent="YblMqJhnmN97O4RaRaiR-26" vertex="1" connectable="0">
          <mxGeometry x="0.9645" relative="1" as="geometry">
            <mxPoint as="offset" />
          </mxGeometry>
        </mxCell>
        <mxCell id="3vEcP0cab8kTDgmXyrk_-13" style="edgeStyle=orthogonalEdgeStyle;rounded=0;orthogonalLoop=1;jettySize=auto;html=1;exitX=0.5;exitY=0;exitDx=0;exitDy=0;startArrow=none;startFill=0;endArrow=block;endFill=0;" parent="WIyWlLk6GJQsqaUBKTNV-1" source="YblMqJhnmN97O4RaRaiR-0" target="3vEcP0cab8kTDgmXyrk_-6" edge="1">
          <mxGeometry relative="1" as="geometry" />
        </mxCell>
        <mxCell id="YblMqJhnmN97O4RaRaiR-0" value="Plane" style="swimlane;fontStyle=1;align=center;verticalAlign=top;childLayout=stackLayout;horizontal=1;startSize=26;horizontalStack=0;resizeParent=1;resizeParentMax=0;resizeLast=0;collapsible=1;marginBottom=0;" parent="WIyWlLk6GJQsqaUBKTNV-1" vertex="1">
          <mxGeometry x="-150" y="310" width="320" height="320" as="geometry" />
        </mxCell>
        <mxCell id="YblMqJhnmN97O4RaRaiR-1" value="+ supVec: vector" style="text;strokeColor=none;fillColor=none;align=left;verticalAlign=top;spacingLeft=4;spacingRight=4;overflow=hidden;rotatable=0;points=[[0,0.5],[1,0.5]];portConstraint=eastwest;" parent="YblMqJhnmN97O4RaRaiR-0" vertex="1">
          <mxGeometry y="26" width="320" height="26" as="geometry" />
        </mxCell>
        <mxCell id="YblMqJhnmN97O4RaRaiR-4" value="+ dirVec1: vector" style="text;strokeColor=none;fillColor=none;align=left;verticalAlign=top;spacingLeft=4;spacingRight=4;overflow=hidden;rotatable=0;points=[[0,0.5],[1,0.5]];portConstraint=eastwest;" parent="YblMqJhnmN97O4RaRaiR-0" vertex="1">
          <mxGeometry y="52" width="320" height="26" as="geometry" />
        </mxCell>
        <mxCell id="YblMqJhnmN97O4RaRaiR-6" value="+ dirVec2: vector" style="text;strokeColor=none;fillColor=none;align=left;verticalAlign=top;spacingLeft=4;spacingRight=4;overflow=hidden;rotatable=0;points=[[0,0.5],[1,0.5]];portConstraint=eastwest;" parent="YblMqJhnmN97O4RaRaiR-0" vertex="1">
          <mxGeometry y="78" width="320" height="26" as="geometry" />
        </mxCell>
        <mxCell id="IABuSJqJelBDzB3_0y4K-2" value="+ &lt;&lt;property&gt;&gt; norm: vector" style="text;strokeColor=none;fillColor=none;align=left;verticalAlign=top;spacingLeft=4;spacingRight=4;overflow=hidden;rotatable=0;points=[[0,0.5],[1,0.5]];portConstraint=eastwest;" parent="YblMqJhnmN97O4RaRaiR-0" vertex="1">
          <mxGeometry y="104" width="320" height="26" as="geometry" />
        </mxCell>
        <mxCell id="IABuSJqJelBDzB3_0y4K-11" value="- trans2dTo3d: matrix" style="text;strokeColor=none;fillColor=none;align=left;verticalAlign=top;spacingLeft=4;spacingRight=4;overflow=hidden;rotatable=0;points=[[0,0.5],[1,0.5]];portConstraint=eastwest;" parent="YblMqJhnmN97O4RaRaiR-0" vertex="1">
          <mxGeometry y="130" width="320" height="26" as="geometry" />
        </mxCell>
        <mxCell id="IABuSJqJelBDzB3_0y4K-13" value="- trans3dTo2d: matrix" style="text;strokeColor=none;fillColor=none;align=left;verticalAlign=top;spacingLeft=4;spacingRight=4;overflow=hidden;rotatable=0;points=[[0,0.5],[1,0.5]];portConstraint=eastwest;" parent="YblMqJhnmN97O4RaRaiR-0" vertex="1">
          <mxGeometry y="156" width="320" height="26" as="geometry" />
        </mxCell>
        <mxCell id="YblMqJhnmN97O4RaRaiR-2" value="" style="line;strokeWidth=1;fillColor=none;align=left;verticalAlign=middle;spacingTop=-1;spacingLeft=3;spacingRight=3;rotatable=0;labelPosition=right;points=[];portConstraint=eastwest;" parent="YblMqJhnmN97O4RaRaiR-0" vertex="1">
          <mxGeometry y="182" width="320" height="8" as="geometry" />
        </mxCell>
        <mxCell id="IABuSJqJelBDzB3_0y4K-14" value="+ Plane(supVec: vector, dirVec1: vector, dirVec2: vector)" style="text;strokeColor=none;fillColor=none;align=left;verticalAlign=top;spacingLeft=4;spacingRight=4;overflow=hidden;rotatable=0;points=[[0,0.5],[1,0.5]];portConstraint=eastwest;" parent="YblMqJhnmN97O4RaRaiR-0" vertex="1">
          <mxGeometry y="190" width="320" height="26" as="geometry" />
        </mxCell>
        <mxCell id="IABuSJqJelBDzB3_0y4K-7" value="+ getPositiveNormVec(origin: vector): vector" style="text;strokeColor=none;fillColor=none;align=left;verticalAlign=top;spacingLeft=4;spacingRight=4;overflow=hidden;rotatable=0;points=[[0,0.5],[1,0.5]];portConstraint=eastwest;" parent="YblMqJhnmN97O4RaRaiR-0" vertex="1">
          <mxGeometry y="216" width="320" height="26" as="geometry" />
        </mxCell>
        <mxCell id="IABuSJqJelBDzB3_0y4K-8" value="+ checkPointInBorders(point: vector): boolean" style="text;strokeColor=none;fillColor=none;align=left;verticalAlign=top;spacingLeft=4;spacingRight=4;overflow=hidden;rotatable=0;points=[[0,0.5],[1,0.5]];portConstraint=eastwest;" parent="YblMqJhnmN97O4RaRaiR-0" vertex="1">
          <mxGeometry y="242" width="320" height="26" as="geometry" />
        </mxCell>
        <mxCell id="IABuSJqJelBDzB3_0y4K-9" value="+ getClosestPoint(point: vector): vector" style="text;strokeColor=none;fillColor=none;align=left;verticalAlign=top;spacingLeft=4;spacingRight=4;overflow=hidden;rotatable=0;points=[[0,0.5],[1,0.5]];portConstraint=eastwest;" parent="YblMqJhnmN97O4RaRaiR-0" vertex="1">
          <mxGeometry y="268" width="320" height="26" as="geometry" />
        </mxCell>
        <mxCell id="IABuSJqJelBDzB3_0y4K-10" value="+ getFurthestPoint(point: vector): vector" style="text;strokeColor=none;fillColor=none;align=left;verticalAlign=top;spacingLeft=4;spacingRight=4;overflow=hidden;rotatable=0;points=[[0,0.5],[1,0.5]];portConstraint=eastwest;" parent="YblMqJhnmN97O4RaRaiR-0" vertex="1">
          <mxGeometry y="294" width="320" height="26" as="geometry" />
        </mxCell>
        <mxCell id="YblMqJhnmN97O4RaRaiR-10" value="LightSource" style="swimlane;fontStyle=1;align=center;verticalAlign=top;childLayout=stackLayout;horizontal=1;startSize=26;horizontalStack=0;resizeParent=1;resizeParentMax=0;resizeLast=0;collapsible=1;marginBottom=0;" parent="WIyWlLk6GJQsqaUBKTNV-1" vertex="1">
          <mxGeometry x="830" y="370" width="500" height="320" as="geometry" />
        </mxCell>
        <mxCell id="rJ9RHbi7TF8wlJc5X133-24" value="- middle: vector" style="text;strokeColor=none;fillColor=none;align=left;verticalAlign=top;spacingLeft=4;spacingRight=4;overflow=hidden;rotatable=0;points=[[0,0.5],[1,0.5]];portConstraint=eastwest;" parent="YblMqJhnmN97O4RaRaiR-10" vertex="1">
          <mxGeometry y="26" width="500" height="26" as="geometry" />
        </mxCell>
        <mxCell id="YblMqJhnmN97O4RaRaiR-12" value="" style="line;strokeWidth=1;fillColor=none;align=left;verticalAlign=middle;spacingTop=-1;spacingLeft=3;spacingRight=3;rotatable=0;labelPosition=right;points=[];portConstraint=eastwest;" parent="YblMqJhnmN97O4RaRaiR-10" vertex="1">
          <mxGeometry y="52" width="500" height="8" as="geometry" />
        </mxCell>
        <mxCell id="IABuSJqJelBDzB3_0y4K-21" value="+ LightSource(surfaces: Surfaces, plane: Plane, phongProp: PhongProperties): LightSource" style="text;strokeColor=none;fillColor=none;align=left;verticalAlign=top;spacingLeft=4;spacingRight=4;overflow=hidden;rotatable=0;points=[[0,0.5],[1,0.5]];portConstraint=eastwest;" parent="YblMqJhnmN97O4RaRaiR-10" vertex="1">
          <mxGeometry y="60" width="500" height="26" as="geometry" />
        </mxCell>
        <mxCell id="IABuSJqJelBDzB3_0y4K-18" value="- generate_aim(aimX: float, aimY: float): vector" style="text;strokeColor=none;fillColor=none;align=left;verticalAlign=top;spacingLeft=4;spacingRight=4;overflow=hidden;rotatable=0;points=[[0,0.5],[1,0.5]];portConstraint=eastwest;" parent="YblMqJhnmN97O4RaRaiR-10" vertex="1">
          <mxGeometry y="86" width="500" height="26" as="geometry" />
        </mxCell>
        <mxCell id="IABuSJqJelBDzB3_0y4K-19" value="- generateShadowRay(aim: vector, sourcePos: vector): Ray" style="text;strokeColor=none;fillColor=none;align=left;verticalAlign=top;spacingLeft=4;spacingRight=4;overflow=hidden;rotatable=0;points=[[0,0.5],[1,0.5]];portConstraint=eastwest;" parent="YblMqJhnmN97O4RaRaiR-10" vertex="1">
          <mxGeometry y="112" width="500" height="26" as="geometry" />
        </mxCell>
        <mxCell id="IABuSJqJelBDzB3_0y4K-20" value="- generateRandomShadowRay(sourcePos: vector): Ray" style="text;strokeColor=none;fillColor=none;align=left;verticalAlign=top;spacingLeft=4;spacingRight=4;overflow=hidden;rotatable=0;points=[[0,0.5],[1,0.5]];portConstraint=eastwest;" parent="YblMqJhnmN97O4RaRaiR-10" vertex="1">
          <mxGeometry y="138" width="500" height="26" as="geometry" />
        </mxCell>
        <mxCell id="IABuSJqJelBDzB3_0y4K-22" value="- generateSystematicShadowRayList(sourcePos: vector,&#xa;systematicShadowRayRootCount: int): list&#xa;" style="text;strokeColor=none;fillColor=none;align=left;verticalAlign=top;spacingLeft=4;spacingRight=4;overflow=hidden;rotatable=0;points=[[0,0.5],[1,0.5]];portConstraint=eastwest;" parent="YblMqJhnmN97O4RaRaiR-10" vertex="1">
          <mxGeometry y="164" width="500" height="36" as="geometry" />
        </mxCell>
        <mxCell id="YblMqJhnmN97O4RaRaiR-13" value="+ checkIfShadowed(PostionHitPoint): float" style="text;strokeColor=none;fillColor=none;align=left;verticalAlign=top;spacingLeft=4;spacingRight=4;overflow=hidden;rotatable=0;points=[[0,0.5],[1,0.5]];portConstraint=eastwest;" parent="YblMqJhnmN97O4RaRaiR-10" vertex="1">
          <mxGeometry y="200" width="500" height="26" as="geometry" />
        </mxCell>
        <mxCell id="IABuSJqJelBDzB3_0y4K-23" value="+ getAmbient(): colorVector" style="text;strokeColor=none;fillColor=none;align=left;verticalAlign=top;spacingLeft=4;spacingRight=4;overflow=hidden;rotatable=0;points=[[0,0.5],[1,0.5]];portConstraint=eastwest;" parent="YblMqJhnmN97O4RaRaiR-10" vertex="1">
          <mxGeometry y="226" width="500" height="26" as="geometry" />
        </mxCell>
        <mxCell id="IABuSJqJelBDzB3_0y4K-24" value="+ getClosestPointOfLight(ray: Ray): vector" style="text;strokeColor=none;fillColor=none;align=left;verticalAlign=top;spacingLeft=4;spacingRight=4;overflow=hidden;rotatable=0;points=[[0,0.5],[1,0.5]];portConstraint=eastwest;" parent="YblMqJhnmN97O4RaRaiR-10" vertex="1">
          <mxGeometry y="252" width="500" height="26" as="geometry" />
        </mxCell>
        <mxCell id="IABuSJqJelBDzB3_0y4K-25" value="+ getIllumination(surfNormV: vector, pos: vector, cameraPos: vector, shinyness: float):&#xa;(colorVector, colorVector)&#xa;" style="text;strokeColor=none;fillColor=none;align=left;verticalAlign=top;spacingLeft=4;spacingRight=4;overflow=hidden;rotatable=0;points=[[0,0.5],[1,0.5]];portConstraint=eastwest;" parent="YblMqJhnmN97O4RaRaiR-10" vertex="1">
          <mxGeometry y="278" width="500" height="42" as="geometry" />
        </mxCell>
        <mxCell id="YblMqJhnmN97O4RaRaiR-25" style="edgeStyle=orthogonalEdgeStyle;rounded=0;orthogonalLoop=1;jettySize=auto;html=1;exitX=0.5;exitY=1;exitDx=0;exitDy=0;startArrow=oval;startFill=1;endArrow=none;endFill=0;" parent="WIyWlLk6GJQsqaUBKTNV-1" source="YblMqJhnmN97O4RaRaiR-17" target="YblMqJhnmN97O4RaRaiR-10" edge="1">
          <mxGeometry relative="1" as="geometry">
            <Array as="points">
              <mxPoint x="445" y="560" />
            </Array>
          </mxGeometry>
        </mxCell>
        <mxCell id="YblMqJhnmN97O4RaRaiR-34" value="1" style="edgeLabel;html=1;align=center;verticalAlign=middle;resizable=0;points=[];" parent="YblMqJhnmN97O4RaRaiR-25" vertex="1" connectable="0">
          <mxGeometry x="-0.9532" y="1" relative="1" as="geometry">
            <mxPoint as="offset" />
          </mxGeometry>
        </mxCell>
        <mxCell id="YblMqJhnmN97O4RaRaiR-36" value="1" style="edgeLabel;html=1;align=center;verticalAlign=middle;resizable=0;points=[];" parent="YblMqJhnmN97O4RaRaiR-25" vertex="1" connectable="0">
          <mxGeometry x="0.9498" y="-1" relative="1" as="geometry">
            <mxPoint as="offset" />
          </mxGeometry>
        </mxCell>
        <mxCell id="YblMqJhnmN97O4RaRaiR-17" value="PhongProperties" style="swimlane;fontStyle=1;align=center;verticalAlign=top;childLayout=stackLayout;horizontal=1;startSize=26;horizontalStack=0;resizeParent=1;resizeParentMax=0;resizeLast=0;collapsible=1;marginBottom=0;" parent="WIyWlLk6GJQsqaUBKTNV-1" vertex="1">
          <mxGeometry x="270" y="320" width="350" height="150" as="geometry" />
        </mxCell>
        <mxCell id="YblMqJhnmN97O4RaRaiR-18" value="+ ambient: colorVector" style="text;strokeColor=none;fillColor=none;align=left;verticalAlign=top;spacingLeft=4;spacingRight=4;overflow=hidden;rotatable=0;points=[[0,0.5],[1,0.5]];portConstraint=eastwest;" parent="YblMqJhnmN97O4RaRaiR-17" vertex="1">
          <mxGeometry y="26" width="350" height="26" as="geometry" />
        </mxCell>
        <mxCell id="YblMqJhnmN97O4RaRaiR-22" value="+ diffuse: colorVector" style="text;strokeColor=none;fillColor=none;align=left;verticalAlign=top;spacingLeft=4;spacingRight=4;overflow=hidden;rotatable=0;points=[[0,0.5],[1,0.5]];portConstraint=eastwest;" parent="YblMqJhnmN97O4RaRaiR-17" vertex="1">
          <mxGeometry y="52" width="350" height="26" as="geometry" />
        </mxCell>
        <mxCell id="YblMqJhnmN97O4RaRaiR-23" value="+ specular: colorVector" style="text;strokeColor=none;fillColor=none;align=left;verticalAlign=top;spacingLeft=4;spacingRight=4;overflow=hidden;rotatable=0;points=[[0,0.5],[1,0.5]];portConstraint=eastwest;" parent="YblMqJhnmN97O4RaRaiR-17" vertex="1">
          <mxGeometry y="78" width="350" height="26" as="geometry" />
        </mxCell>
        <mxCell id="YblMqJhnmN97O4RaRaiR-19" value="" style="line;strokeWidth=1;fillColor=none;align=left;verticalAlign=middle;spacingTop=-1;spacingLeft=3;spacingRight=3;rotatable=0;labelPosition=right;points=[];portConstraint=eastwest;" parent="YblMqJhnmN97O4RaRaiR-17" vertex="1">
          <mxGeometry y="104" width="350" height="8" as="geometry" />
        </mxCell>
        <mxCell id="IABuSJqJelBDzB3_0y4K-15" value="+ PhongProperties(color: colorVector, ambientMult: float&#xa;, diffuseMult: float, specularWhite=True: boolean)&#xa;" style="text;strokeColor=none;fillColor=none;align=left;verticalAlign=top;spacingLeft=4;spacingRight=4;overflow=hidden;rotatable=0;points=[[0,0.5],[1,0.5]];portConstraint=eastwest;" parent="YblMqJhnmN97O4RaRaiR-17" vertex="1">
          <mxGeometry y="112" width="350" height="38" as="geometry" />
        </mxCell>
        <mxCell id="YblMqJhnmN97O4RaRaiR-28" style="edgeStyle=orthogonalEdgeStyle;rounded=0;orthogonalLoop=1;jettySize=auto;html=1;exitX=0.5;exitY=0;exitDx=0;exitDy=0;startArrow=oval;startFill=1;endArrow=none;endFill=0;" parent="WIyWlLk6GJQsqaUBKTNV-1" source="YblMqJhnmN97O4RaRaiR-10" target="xA0XNcAtHobreGwFJSrl-48" edge="1">
          <mxGeometry relative="1" as="geometry">
            <mxPoint x="1070" y="440" as="targetPoint" />
          </mxGeometry>
        </mxCell>
        <mxCell id="rJ9RHbi7TF8wlJc5X133-3" value="TimeStopper" style="swimlane;fontStyle=1;align=center;verticalAlign=top;childLayout=stackLayout;horizontal=1;startSize=26;horizontalStack=0;resizeParent=1;resizeParentMax=0;resizeLast=0;collapsible=1;marginBottom=0;" parent="WIyWlLk6GJQsqaUBKTNV-1" vertex="1">
          <mxGeometry x="1400" y="590" width="340" height="216" as="geometry" />
        </mxCell>
        <mxCell id="rJ9RHbi7TF8wlJc5X133-4" value="- startTime: float" style="text;strokeColor=none;fillColor=none;align=left;verticalAlign=top;spacingLeft=4;spacingRight=4;overflow=hidden;rotatable=0;points=[[0,0.5],[1,0.5]];portConstraint=eastwest;" parent="rJ9RHbi7TF8wlJc5X133-3" vertex="1">
          <mxGeometry y="26" width="340" height="26" as="geometry" />
        </mxCell>
        <mxCell id="rJ9RHbi7TF8wlJc5X133-7" value="- lastTimeCapture: float" style="text;strokeColor=none;fillColor=none;align=left;verticalAlign=top;spacingLeft=4;spacingRight=4;overflow=hidden;rotatable=0;points=[[0,0.5],[1,0.5]];portConstraint=eastwest;" parent="rJ9RHbi7TF8wlJc5X133-3" vertex="1">
          <mxGeometry y="52" width="340" height="26" as="geometry" />
        </mxCell>
        <mxCell id="rJ9RHbi7TF8wlJc5X133-8" value="+ hours: int" style="text;strokeColor=none;fillColor=none;align=left;verticalAlign=top;spacingLeft=4;spacingRight=4;overflow=hidden;rotatable=0;points=[[0,0.5],[1,0.5]];portConstraint=eastwest;" parent="rJ9RHbi7TF8wlJc5X133-3" vertex="1">
          <mxGeometry y="78" width="340" height="26" as="geometry" />
        </mxCell>
        <mxCell id="rJ9RHbi7TF8wlJc5X133-9" value="+ minutes: int" style="text;strokeColor=none;fillColor=none;align=left;verticalAlign=top;spacingLeft=4;spacingRight=4;overflow=hidden;rotatable=0;points=[[0,0.5],[1,0.5]];portConstraint=eastwest;" parent="rJ9RHbi7TF8wlJc5X133-3" vertex="1">
          <mxGeometry y="104" width="340" height="26" as="geometry" />
        </mxCell>
        <mxCell id="rJ9RHbi7TF8wlJc5X133-10" value="+ seconds: int" style="text;strokeColor=none;fillColor=none;align=left;verticalAlign=top;spacingLeft=4;spacingRight=4;overflow=hidden;rotatable=0;points=[[0,0.5],[1,0.5]];portConstraint=eastwest;" parent="rJ9RHbi7TF8wlJc5X133-3" vertex="1">
          <mxGeometry y="130" width="340" height="26" as="geometry" />
        </mxCell>
        <mxCell id="rJ9RHbi7TF8wlJc5X133-5" value="" style="line;strokeWidth=1;fillColor=none;align=left;verticalAlign=middle;spacingTop=-1;spacingLeft=3;spacingRight=3;rotatable=0;labelPosition=right;points=[];portConstraint=eastwest;" parent="rJ9RHbi7TF8wlJc5X133-3" vertex="1">
          <mxGeometry y="156" width="340" height="8" as="geometry" />
        </mxCell>
        <mxCell id="rJ9RHbi7TF8wlJc5X133-6" value="+ TimeStopper(): TimeStopper" style="text;strokeColor=none;fillColor=none;align=left;verticalAlign=top;spacingLeft=4;spacingRight=4;overflow=hidden;rotatable=0;points=[[0,0.5],[1,0.5]];portConstraint=eastwest;" parent="rJ9RHbi7TF8wlJc5X133-3" vertex="1">
          <mxGeometry y="164" width="340" height="26" as="geometry" />
        </mxCell>
        <mxCell id="rJ9RHbi7TF8wlJc5X133-11" value="+ getPassedTimeString(run: int, absoluteruns: int): str" style="text;strokeColor=none;fillColor=none;align=left;verticalAlign=top;spacingLeft=4;spacingRight=4;overflow=hidden;rotatable=0;points=[[0,0.5],[1,0.5]];portConstraint=eastwest;" parent="rJ9RHbi7TF8wlJc5X133-3" vertex="1">
          <mxGeometry y="190" width="340" height="26" as="geometry" />
        </mxCell>
        <mxCell id="rJ9RHbi7TF8wlJc5X133-13" value="PictureDisplay" style="swimlane;fontStyle=1;align=center;verticalAlign=top;childLayout=stackLayout;horizontal=1;startSize=26;horizontalStack=0;resizeParent=1;resizeParentMax=0;resizeLast=0;collapsible=1;marginBottom=0;" parent="WIyWlLk6GJQsqaUBKTNV-1" vertex="1">
          <mxGeometry x="910" y="-260" width="340" height="164" as="geometry" />
        </mxCell>
        <mxCell id="rJ9RHbi7TF8wlJc5X133-14" value="+ name: str" style="text;strokeColor=none;fillColor=none;align=left;verticalAlign=top;spacingLeft=4;spacingRight=4;overflow=hidden;rotatable=0;points=[[0,0.5],[1,0.5]];portConstraint=eastwest;" parent="rJ9RHbi7TF8wlJc5X133-13" vertex="1">
          <mxGeometry y="26" width="340" height="26" as="geometry" />
        </mxCell>
        <mxCell id="rJ9RHbi7TF8wlJc5X133-17" value="+ fig: plt.figure" style="text;strokeColor=none;fillColor=none;align=left;verticalAlign=top;spacingLeft=4;spacingRight=4;overflow=hidden;rotatable=0;points=[[0,0.5],[1,0.5]];portConstraint=eastwest;" parent="rJ9RHbi7TF8wlJc5X133-13" vertex="1">
          <mxGeometry y="52" width="340" height="26" as="geometry" />
        </mxCell>
        <mxCell id="rJ9RHbi7TF8wlJc5X133-18" value="+ ax: plt.axes" style="text;strokeColor=none;fillColor=none;align=left;verticalAlign=top;spacingLeft=4;spacingRight=4;overflow=hidden;rotatable=0;points=[[0,0.5],[1,0.5]];portConstraint=eastwest;" parent="rJ9RHbi7TF8wlJc5X133-13" vertex="1">
          <mxGeometry y="78" width="340" height="26" as="geometry" />
        </mxCell>
        <mxCell id="rJ9RHbi7TF8wlJc5X133-15" value="" style="line;strokeWidth=1;fillColor=none;align=left;verticalAlign=middle;spacingTop=-1;spacingLeft=3;spacingRight=3;rotatable=0;labelPosition=right;points=[];portConstraint=eastwest;" parent="rJ9RHbi7TF8wlJc5X133-13" vertex="1">
          <mxGeometry y="104" width="340" height="8" as="geometry" />
        </mxCell>
        <mxCell id="rJ9RHbi7TF8wlJc5X133-16" value="+ PictureDisplay(name: str): PictureDisplay" style="text;strokeColor=none;fillColor=none;align=left;verticalAlign=top;spacingLeft=4;spacingRight=4;overflow=hidden;rotatable=0;points=[[0,0.5],[1,0.5]];portConstraint=eastwest;" parent="rJ9RHbi7TF8wlJc5X133-13" vertex="1">
          <mxGeometry y="112" width="340" height="26" as="geometry" />
        </mxCell>
        <mxCell id="rJ9RHbi7TF8wlJc5X133-20" value="+ draw(image: matrix)" style="text;strokeColor=none;fillColor=none;align=left;verticalAlign=top;spacingLeft=4;spacingRight=4;overflow=hidden;rotatable=0;points=[[0,0.5],[1,0.5]];portConstraint=eastwest;" parent="rJ9RHbi7TF8wlJc5X133-13" vertex="1">
          <mxGeometry y="138" width="340" height="26" as="geometry" />
        </mxCell>
        <mxCell id="3vEcP0cab8kTDgmXyrk_-0" value="SpaceObject" style="swimlane;fontStyle=1;align=center;verticalAlign=top;childLayout=stackLayout;horizontal=1;startSize=26;horizontalStack=0;resizeParent=1;resizeParentMax=0;resizeLast=0;collapsible=1;marginBottom=0;" parent="WIyWlLk6GJQsqaUBKTNV-1" vertex="1">
          <mxGeometry x="-160" y="-240" width="420" height="164" as="geometry" />
        </mxCell>
        <mxCell id="xA0XNcAtHobreGwFJSrl-87" value="&lt;&lt;get&gt;&gt; shinyness: float" style="text;strokeColor=none;fillColor=none;align=left;verticalAlign=top;spacingLeft=4;spacingRight=4;overflow=hidden;rotatable=0;points=[[0,0.5],[1,0.5]];portConstraint=eastwest;" parent="3vEcP0cab8kTDgmXyrk_-0" vertex="1">
          <mxGeometry y="26" width="420" height="26" as="geometry" />
        </mxCell>
        <mxCell id="xA0XNcAtHobreGwFJSrl-88" value="&lt;&lt;get&gt;&gt; reflection: float" style="text;strokeColor=none;fillColor=none;align=left;verticalAlign=top;spacingLeft=4;spacingRight=4;overflow=hidden;rotatable=0;points=[[0,0.5],[1,0.5]];portConstraint=eastwest;" parent="3vEcP0cab8kTDgmXyrk_-0" vertex="1">
          <mxGeometry y="52" width="420" height="26" as="geometry" />
        </mxCell>
        <mxCell id="IABuSJqJelBDzB3_0y4K-16" value="+ &lt;&lt;property&gt;&gt; norm: vector" style="text;strokeColor=none;fillColor=none;align=left;verticalAlign=top;spacingLeft=4;spacingRight=4;overflow=hidden;rotatable=0;points=[[0,0.5],[1,0.5]];portConstraint=eastwest;" parent="3vEcP0cab8kTDgmXyrk_-0" vertex="1">
          <mxGeometry y="78" width="420" height="26" as="geometry" />
        </mxCell>
        <mxCell id="3vEcP0cab8kTDgmXyrk_-2" value="" style="line;strokeWidth=1;fillColor=none;align=left;verticalAlign=middle;spacingTop=-1;spacingLeft=3;spacingRight=3;rotatable=0;labelPosition=right;points=[];portConstraint=eastwest;" parent="3vEcP0cab8kTDgmXyrk_-0" vertex="1">
          <mxGeometry y="104" width="420" height="8" as="geometry" />
        </mxCell>
        <mxCell id="3vEcP0cab8kTDgmXyrk_-5" value="+ SpaceObject(GeometricObject, PhongProperties, shinyness, reflection)" style="text;strokeColor=none;fillColor=none;align=left;verticalAlign=top;spacingLeft=4;spacingRight=4;overflow=hidden;rotatable=0;points=[[0,0.5],[1,0.5]];portConstraint=eastwest;" parent="3vEcP0cab8kTDgmXyrk_-0" vertex="1">
          <mxGeometry y="112" width="420" height="26" as="geometry" />
        </mxCell>
        <mxCell id="3vEcP0cab8kTDgmXyrk_-3" value="+ getCollision(ray): (surface, Distance)" style="text;strokeColor=none;fillColor=none;align=left;verticalAlign=top;spacingLeft=4;spacingRight=4;overflow=hidden;rotatable=0;points=[[0,0.5],[1,0.5]];portConstraint=eastwest;" parent="3vEcP0cab8kTDgmXyrk_-0" vertex="1">
          <mxGeometry y="138" width="420" height="26" as="geometry" />
        </mxCell>
        <mxCell id="YblMqJhnmN97O4RaRaiR-24" style="edgeStyle=orthogonalEdgeStyle;rounded=0;orthogonalLoop=1;jettySize=auto;html=1;exitX=0.5;exitY=0;exitDx=0;exitDy=0;startArrow=oval;startFill=1;endArrow=none;endFill=0;" parent="WIyWlLk6GJQsqaUBKTNV-1" source="YblMqJhnmN97O4RaRaiR-17" target="3vEcP0cab8kTDgmXyrk_-0" edge="1">
          <mxGeometry relative="1" as="geometry">
            <Array as="points">
              <mxPoint x="445" y="270" />
              <mxPoint x="230" y="270" />
            </Array>
            <mxPoint x="430" y="-240" as="targetPoint" />
          </mxGeometry>
        </mxCell>
        <mxCell id="YblMqJhnmN97O4RaRaiR-32" value="1" style="edgeLabel;html=1;align=center;verticalAlign=middle;resizable=0;points=[];" parent="YblMqJhnmN97O4RaRaiR-24" vertex="1" connectable="0">
          <mxGeometry x="0.8979" y="-1" relative="1" as="geometry">
            <mxPoint as="offset" />
          </mxGeometry>
        </mxCell>
        <mxCell id="YblMqJhnmN97O4RaRaiR-33" value="1" style="edgeLabel;html=1;align=center;verticalAlign=middle;resizable=0;points=[];" parent="YblMqJhnmN97O4RaRaiR-24" vertex="1" connectable="0">
          <mxGeometry x="-0.8638" y="-1" relative="1" as="geometry">
            <mxPoint as="offset" />
          </mxGeometry>
        </mxCell>
        <mxCell id="3vEcP0cab8kTDgmXyrk_-6" value="GeometricObject" style="swimlane;fontStyle=3;align=center;verticalAlign=top;childLayout=stackLayout;horizontal=1;startSize=26;horizontalStack=0;resizeParent=1;resizeParentMax=0;resizeLast=0;collapsible=1;marginBottom=0;" parent="WIyWlLk6GJQsqaUBKTNV-1" vertex="1">
          <mxGeometry x="-150" y="62" width="320" height="138" as="geometry" />
        </mxCell>
        <mxCell id="3vEcP0cab8kTDgmXyrk_-8" value="" style="line;strokeWidth=1;fillColor=none;align=left;verticalAlign=middle;spacingTop=-1;spacingLeft=3;spacingRight=3;rotatable=0;labelPosition=right;points=[];portConstraint=eastwest;" parent="3vEcP0cab8kTDgmXyrk_-6" vertex="1">
          <mxGeometry y="26" width="320" height="8" as="geometry" />
        </mxCell>
        <mxCell id="3vEcP0cab8kTDgmXyrk_-9" value="+ checkCollision(ray): Distance: float" style="text;strokeColor=none;fillColor=none;align=left;verticalAlign=top;spacingLeft=4;spacingRight=4;overflow=hidden;rotatable=0;points=[[0,0.5],[1,0.5]];portConstraint=eastwest;" parent="3vEcP0cab8kTDgmXyrk_-6" vertex="1">
          <mxGeometry y="34" width="320" height="26" as="geometry" />
        </mxCell>
        <mxCell id="3vEcP0cab8kTDgmXyrk_-11" value="+ getNorm(): vector" style="text;strokeColor=none;fillColor=none;align=left;verticalAlign=top;spacingLeft=4;spacingRight=4;overflow=hidden;rotatable=0;points=[[0,0.5],[1,0.5]];portConstraint=eastwest;" parent="3vEcP0cab8kTDgmXyrk_-6" vertex="1">
          <mxGeometry y="60" width="320" height="26" as="geometry" />
        </mxCell>
        <mxCell id="eZX0cKU3JHBVWnm2hXTU-10" value="+ move(vector)" style="text;strokeColor=none;fillColor=none;align=left;verticalAlign=top;spacingLeft=4;spacingRight=4;overflow=hidden;rotatable=0;points=[[0,0.5],[1,0.5]];portConstraint=eastwest;" vertex="1" parent="3vEcP0cab8kTDgmXyrk_-6">
          <mxGeometry y="86" width="320" height="26" as="geometry" />
        </mxCell>
        <mxCell id="eZX0cKU3JHBVWnm2hXTU-11" value="+ rotate(origin: vector, direction: vector)" style="text;strokeColor=none;fillColor=none;align=left;verticalAlign=top;spacingLeft=4;spacingRight=4;overflow=hidden;rotatable=0;points=[[0,0.5],[1,0.5]];portConstraint=eastwest;" vertex="1" parent="3vEcP0cab8kTDgmXyrk_-6">
          <mxGeometry y="112" width="320" height="26" as="geometry" />
        </mxCell>
        <mxCell id="3vEcP0cab8kTDgmXyrk_-12" style="edgeStyle=orthogonalEdgeStyle;rounded=0;orthogonalLoop=1;jettySize=auto;html=1;exitX=0.5;exitY=0;exitDx=0;exitDy=0;endArrow=none;endFill=0;startArrow=oval;startFill=1;" parent="WIyWlLk6GJQsqaUBKTNV-1" source="3vEcP0cab8kTDgmXyrk_-6" target="3vEcP0cab8kTDgmXyrk_-0" edge="1">
          <mxGeometry relative="1" as="geometry" />
        </mxCell>
        <mxCell id="3vEcP0cab8kTDgmXyrk_-14" value="1" style="edgeLabel;html=1;align=center;verticalAlign=middle;resizable=0;points=[];" parent="3vEcP0cab8kTDgmXyrk_-12" vertex="1" connectable="0">
          <mxGeometry x="0.9498" relative="1" as="geometry">
            <mxPoint as="offset" />
          </mxGeometry>
        </mxCell>
        <mxCell id="3vEcP0cab8kTDgmXyrk_-15" value="1" style="edgeLabel;html=1;align=center;verticalAlign=middle;resizable=0;points=[];" parent="3vEcP0cab8kTDgmXyrk_-12" vertex="1" connectable="0">
          <mxGeometry x="-0.9269" y="-1" relative="1" as="geometry">
            <mxPoint as="offset" />
          </mxGeometry>
        </mxCell>
        <mxCell id="eZX0cKU3JHBVWnm2hXTU-0" value="ComplexSpaceObject" style="swimlane;fontStyle=1;align=center;verticalAlign=top;childLayout=stackLayout;horizontal=1;startSize=26;horizontalStack=0;resizeParent=1;resizeParentMax=0;resizeLast=0;collapsible=1;marginBottom=0;" vertex="1" parent="WIyWlLk6GJQsqaUBKTNV-1">
          <mxGeometry x="465" y="-240" width="390" height="164" as="geometry" />
        </mxCell>
        <mxCell id="eZX0cKU3JHBVWnm2hXTU-1" value="+ origin: vector" style="text;strokeColor=none;fillColor=none;align=left;verticalAlign=top;spacingLeft=4;spacingRight=4;overflow=hidden;rotatable=0;points=[[0,0.5],[1,0.5]];portConstraint=eastwest;" vertex="1" parent="eZX0cKU3JHBVWnm2hXTU-0">
          <mxGeometry y="26" width="390" height="26" as="geometry" />
        </mxCell>
        <mxCell id="eZX0cKU3JHBVWnm2hXTU-2" value="" style="line;strokeWidth=1;fillColor=none;align=left;verticalAlign=middle;spacingTop=-1;spacingLeft=3;spacingRight=3;rotatable=0;labelPosition=right;points=[];portConstraint=eastwest;" vertex="1" parent="eZX0cKU3JHBVWnm2hXTU-0">
          <mxGeometry y="52" width="390" height="8" as="geometry" />
        </mxCell>
        <mxCell id="eZX0cKU3JHBVWnm2hXTU-3" value="+ ComplexSpaceObjects(spaceObjectList: list): ComplexSpaceObject" style="text;strokeColor=none;fillColor=none;align=left;verticalAlign=top;spacingLeft=4;spacingRight=4;overflow=hidden;rotatable=0;points=[[0,0.5],[1,0.5]];portConstraint=eastwest;" vertex="1" parent="eZX0cKU3JHBVWnm2hXTU-0">
          <mxGeometry y="60" width="390" height="26" as="geometry" />
        </mxCell>
        <mxCell id="eZX0cKU3JHBVWnm2hXTU-9" value="+ getCollision(ray: Ray): (surface, Distance)" style="text;strokeColor=none;fillColor=none;align=left;verticalAlign=top;spacingLeft=4;spacingRight=4;overflow=hidden;rotatable=0;points=[[0,0.5],[1,0.5]];portConstraint=eastwest;" vertex="1" parent="eZX0cKU3JHBVWnm2hXTU-0">
          <mxGeometry y="86" width="390" height="26" as="geometry" />
        </mxCell>
        <mxCell id="eZX0cKU3JHBVWnm2hXTU-4" value="+ rotate(vector)" style="text;strokeColor=none;fillColor=none;align=left;verticalAlign=top;spacingLeft=4;spacingRight=4;overflow=hidden;rotatable=0;points=[[0,0.5],[1,0.5]];portConstraint=eastwest;" vertex="1" parent="eZX0cKU3JHBVWnm2hXTU-0">
          <mxGeometry y="112" width="390" height="26" as="geometry" />
        </mxCell>
        <mxCell id="eZX0cKU3JHBVWnm2hXTU-5" value="+ translate(vector)" style="text;strokeColor=none;fillColor=none;align=left;verticalAlign=top;spacingLeft=4;spacingRight=4;overflow=hidden;rotatable=0;points=[[0,0.5],[1,0.5]];portConstraint=eastwest;" vertex="1" parent="eZX0cKU3JHBVWnm2hXTU-0">
          <mxGeometry y="138" width="390" height="26" as="geometry" />
        </mxCell>
        <mxCell id="eZX0cKU3JHBVWnm2hXTU-6" style="edgeStyle=orthogonalEdgeStyle;rounded=0;orthogonalLoop=1;jettySize=auto;html=1;exitX=0;exitY=0.5;exitDx=0;exitDy=0;endArrow=oval;endFill=1;" edge="1" parent="WIyWlLk6GJQsqaUBKTNV-1" source="eZX0cKU3JHBVWnm2hXTU-3" target="3vEcP0cab8kTDgmXyrk_-0">
          <mxGeometry relative="1" as="geometry" />
        </mxCell>
        <mxCell id="eZX0cKU3JHBVWnm2hXTU-7" value="1 .. *" style="edgeLabel;html=1;align=center;verticalAlign=middle;resizable=0;points=[];" vertex="1" connectable="0" parent="eZX0cKU3JHBVWnm2hXTU-6">
          <mxGeometry x="0.9065" y="-1" relative="1" as="geometry">
            <mxPoint x="10" y="11" as="offset" />
          </mxGeometry>
        </mxCell>
        <mxCell id="eZX0cKU3JHBVWnm2hXTU-8" value="1" style="edgeLabel;html=1;align=center;verticalAlign=middle;resizable=0;points=[];" vertex="1" connectable="0" parent="eZX0cKU3JHBVWnm2hXTU-6">
          <mxGeometry x="-0.8505" y="-1" relative="1" as="geometry">
            <mxPoint y="18" as="offset" />
          </mxGeometry>
        </mxCell>
      </root>
    </mxGraphModel>
  </diagram>
</mxfile>
